<svg fill="none" xmlns="http://www.w3.org/2000/svg" aria-hidden="true" width="400" height="423" viewBox="0 0 400 423">
  <path paint-order="stroke fill" d="M376.033 322.631C382.445 311.064 384.269 297.54 381.15 284.708C380.256 281.162 379.02 277.708 377.459 274.396C376.966 273.309 376.406 272.254 375.782 271.236L324.947 176.013H272.939L326.122 275.81C327.791 278.71 328.67 281.992 328.67 285.332C328.67 288.672 327.791 291.954 326.122 294.854C324.495 297.564 322.187 299.809 319.422 301.369C316.658 302.929 313.532 303.75 310.351 303.753H249.702C249.031 313.044 246.121 322.039 241.217 329.984C236.312 337.928 229.557 344.59 221.517 349.41H333C340.443 348.919 347.687 346.819 354.223 343.256C363.448 338.751 371.059 331.553 376.033 322.631Z" fill="rgb(0, 227, 170)" stroke="black" stroke-width="8"/>
  <path paint-order="stroke fill" d="M90.9084 113.732H142.917L168.838 65.9127C171.031 61.7857 174.319 58.3308 178.347 55.9206C182.375 53.5105 186.991 52.2367 191.696 52.2367C196.401 52.2367 201.017 53.5105 205.046 55.9206C209.074 58.3308 212.362 61.7857 214.555 65.9127L239.721 113.732H291.729L254.82 44.5395C248.7 33.1074 239.556 23.5431 228.369 16.873C217.181 10.2029 204.373 6.67871 191.319 6.67871C178.264 6.67871 165.456 10.2029 154.269 16.873C143.082 23.5431 133.938 33.1074 127.818 44.5395L90.9084 113.732Z" fill="rgb(0, 227, 170)" stroke="black" stroke-width="8"/>
  <path paint-order="stroke fill" d="M132.851 167.707C133.396 158.454 136.191 149.47 140.996 141.52C145.802 133.569 152.476 126.89 160.449 122.05H59.7869V167.707H132.851Z" fill="rgb(0, 227, 170)" stroke="black" stroke-width="8"/>
  <path paint-order="stroke fill" d="M141.153 171.034V295.78H164.809C169.742 295.725 174.522 294.069 178.415 291.065C182.309 288.061 185.102 283.875 186.367 279.147C186.876 277.333 187.131 275.458 187.122 273.575V198.727C187.144 190.602 190.398 182.813 196.178 177.052C201.958 171.29 209.796 168.022 217.992 167.956H323.268V122.05H190.478C177.388 122.072 164.843 127.242 155.595 136.426C146.347 145.61 141.153 158.057 141.153 171.034Z" fill="rgb(0, 227, 170)" stroke="black" stroke-width="8"/>
  <path paint-order="stroke fill" d="M5.17648 274.402C3.61573 277.714 2.37973 281.168 1.48554 284.714C-1.63066 297.573 0.193473 311.122 6.60253 322.72C11.5903 331.612 19.2003 338.779 28.4126 343.262C34.9489 346.825 42.1929 348.925 49.6356 349.416H191.317C204.666 349.416 217.468 344.159 226.907 334.801C236.346 325.443 241.648 312.751 241.648 299.518V175.936H217.657C211.759 176.086 206.152 178.505 202.019 182.679C197.887 186.854 195.553 192.458 195.512 198.307V273.154C195.489 281.279 192.218 289.063 186.416 294.8C180.613 300.537 172.753 303.759 164.558 303.759H72.7039C69.5232 303.756 66.3976 302.935 63.6332 301.375C60.8688 299.815 58.5603 297.57 56.9336 294.86C55.2645 291.944 54.387 288.649 54.387 285.296C54.387 281.944 55.2645 278.648 56.9336 275.733L110.117 175.936H57.6885L6.85418 271.159C6.26699 272.323 5.67979 273.321 5.17648 274.402Z" fill="rgb(0, 227, 170)" stroke="black" stroke-width="8"/>
</svg>
